<?xml version="1.0" standalone="no"?>
<!DOCTYPE svg PUBLIC "-//W3C//DTD SVG 20010904//EN" "http://www.w3.org/TR/2001/REC-SVG-20010904/DTD/svg10.dtd">
<!-- Created using Krita: https://krita.org -->
<svg xmlns="http://www.w3.org/2000/svg" 
    xmlns:xlink="http://www.w3.org/1999/xlink"
    xmlns:krita="http://krita.org/namespaces/svg/krita"
    xmlns:sodipodi="http://sodipodi.sourceforge.net/DTD/sodipodi-0.dtd"
    width="100.8pt"
    height="100.8pt"
    viewBox="0 0 100.8 100.8">
<defs/>
<path id="shape0" transform="matrix(0.202177853460863 0 0 0.202177853460863 32.2170397687325 32.0008340683746)" fill="#ffffff" stroke-opacity="0" stroke="#000000" stroke-width="0" stroke-linecap="square" stroke-linejoin="bevel" d="M0 43.127C4.006 40.115 8.941 38.25 14.344 38.25L157.782 38.25C163.184 38.25 168.118 40.115 172.126 43.156L172.126 0L0 0Z" sodipodi:nodetypes="ccccccc"/><path id="shape1" transform="matrix(0.202177853460863 0 0 0.202177853460863 28.350994540746 5.45629715393751)" fill="#ffffff" stroke-opacity="0" stroke="#000000" stroke-width="0" stroke-linecap="square" stroke-linejoin="bevel" d="M10.315 120.918C10.583 121.004 10.85 121.081 11.118 121.157C12.399 121.491 13.72 121.731 15.104 121.731L20.049 121.731L189.955 121.731L190.596 121.731L192.604 121.731C195.034 121.731 197.424 121.176 199.651 120.277C205.667 117.848 210.372 112.665 210.372 107.387L210.372 30.887C210.065 26.555 194.536 13.761 162.56 6.005L162.56 16.543C162.56 21.821 158.275 26.105 152.998 26.105C147.719 26.105 143.436 21.821 143.436 16.543L143.436 2.362C134.762 1.119 125.17 0.297 114.748 0L114.748 16.543C114.748 21.821 110.463 26.105 105.186 26.105C99.907 26.105 95.624 21.821 95.624 16.543L95.624 0.048C85.21 0.449 75.667 1.415 66.936 2.764L66.936 16.543C66.936 21.821 62.651 26.105 57.374 26.105C52.095 26.105 47.812 21.821 47.812 16.543L47.812 6.598C16.609 14.449 0.468002 26.832 1.55362e-06 30.925L1.55362e-06 107.387C-0.00299845 113.698 4.339 119.005 10.315 120.918Z" sodipodi:nodetypes="cccccccccccccccccccccccccccc"/><path id="shape2" transform="matrix(0.202177853460863 0 0 0.202177853460863 69.4512581533271 32.0008340683746)" fill="#000000" stroke-opacity="0" stroke="#000000" stroke-width="0" stroke-linecap="square" stroke-linejoin="bevel" d="M0 0L0.01 0Z" sodipodi:nodetypes="ccc"/><path id="shape3" transform="matrix(0.202177853460863 0 0 0.202177853460863 28.3463447642243 41.6677659537522)" fill="#ffffff" stroke-opacity="0" stroke="#000000" stroke-width="0" stroke-linecap="square" stroke-linejoin="bevel" d="M14.364 258.186L196.052 258.186C203.96 258.186 210.396 251.75 210.396 243.842L193.365 39.654L191.291 14.735C191.291 14.668 191.271 14.61 191.271 14.544C191.156 6.339 184.777 0 176.927 0L33.489 0C25.581 0 19.145 6.436 19.145 14.344L17.088 39.025L16.936 40.899L0 244.246C0.02 251.75 6.456 258.186 14.364 258.186ZM143.036 134.59C137.395 139.295 129.343 143.436 118.872 143.436L95.645 143.436L95.645 172.124L76.52 172.124L76.52 76.499L120.172 76.499C129.715 76.499 137.318 79.817 142.988 84.78C148.658 89.753 151.498 98.741 151.498 109.164C151.499 120.534 148.678 129.886 143.036 134.59Z" sodipodi:nodetypes="ccccccccccccccccccccccc"/><path id="shape4" transform="matrix(0.202177853460863 0 0 0.202177853460863 47.6836455584885 61.0008210130938)" fill="#ffffff" stroke-opacity="0" stroke="#000000" stroke-width="0" stroke-linecap="square" stroke-linejoin="bevel" d="M21.314 0L0 0L0 28.688L21.314 28.688C25.904 28.688 29.48 27.014 32.033 24.701C34.588 22.387 35.859 18.466 35.859 13.455C35.859 8.444 34.588 5.098 32.033 2.966C29.481 0.832 25.904 0 21.314 0Z" sodipodi:nodetypes="cccccccc"/><path id="shape5" transform="matrix(0.202177853460863 0 0 0.202177853460863 13.3849132543884 32.0008340683746)" fill="#000000" stroke-opacity="0" stroke="#000000" stroke-width="0" stroke-linecap="square" stroke-linejoin="bevel" d="M0 0L0.009 0Z" sodipodi:nodetypes="ccc"/><g id="group0" transform="matrix(0.719999998918728 0 0 0.719999998918728 0 0)" fill="none"/><g id="group1" transform="matrix(0.719999998918728 0 0 0.719999998918728 0 0)" fill="none"/><g id="group2" transform="matrix(0.719999998918728 0 0 0.719999998918728 0 0)" fill="none"/><g id="group3" transform="matrix(0.719999998918728 0 0 0.719999998918728 0 0)" fill="none"/><g id="group4" transform="matrix(0.719999998918728 0 0 0.719999998918728 0 0)" fill="none"/><g id="group5" transform="matrix(0.719999998918728 0 0 0.719999998918728 0 0)" fill="none"/><g id="group6" transform="matrix(0.719999998918728 0 0 0.719999998918728 0 0)" fill="none"/><g id="group7" transform="matrix(0.719999998918728 0 0 0.719999998918728 0 0)" fill="none"/><g id="group8" transform="matrix(0.719999998918728 0 0 0.719999998918728 0 0)" fill="none"/><g id="group9" transform="matrix(0.719999998918728 0 0 0.719999998918728 0 0)" fill="none"/><g id="group10" transform="matrix(0.719999998918728 0 0 0.719999998918728 0 0)" fill="none"/><g id="group11" transform="matrix(0.719999998918728 0 0 0.719999998918728 0 0)" fill="none"/><g id="group12" transform="matrix(0.719999998918728 0 0 0.719999998918728 0 0)" fill="none"/><g id="group13" transform="matrix(0.719999998918728 0 0 0.719999998918728 0 0)" fill="none"/><g id="group14" transform="matrix(0.719999998918728 0 0 0.719999998918728 0 0)" fill="none"/>
</svg>
