<?xml version="1.0" standalone="no"?>
<!DOCTYPE svg PUBLIC "-//W3C//DTD SVG 20010904//EN" "http://www.w3.org/TR/2001/REC-SVG-20010904/DTD/svg10.dtd">
<!-- Created using Krita: https://krita.org -->
<svg xmlns="http://www.w3.org/2000/svg" 
    xmlns:xlink="http://www.w3.org/1999/xlink"
    xmlns:krita="http://krita.org/namespaces/svg/krita"
    xmlns:sodipodi="http://sodipodi.sourceforge.net/DTD/sodipodi-0.dtd"
    width="100.8pt"
    height="100.8pt"
    viewBox="0 0 100.8 100.8">
<defs/>
<path id="shape0" transform="matrix(0.72 0 0 0.72 3.06000009955505 15.4800004580639)" fill="#ffffff" stroke-opacity="0" stroke="#000000" stroke-width="0" stroke-linecap="square" stroke-linejoin="bevel" d="M130.435 0C130.435 0 99.387 7.02609 65.2174 7.02609C31.05 7.02609 0 0 0 0C0 9.92826 5.01957 19.2413 13.4261 26.763C13.0478 30.7978 13.0457 36.2304 13.0457 43.5022C13.0457 81.1152 36.4043 100 65.2174 100C94.0348 100 117.393 81.1152 117.393 43.5C117.393 36.2261 117.393 30.7913 117.017 26.7565C125.42 19.237 130.435 9.92609 130.435 0M65.2174 94.6652C42.537 94.6652 18.3043 81.2239 18.3043 43.5C18.3043 33.2978 18.3043 25.9261 19.4978 22.837C19.8413 21.9413 20.1696 21.0978 25.4587 21.0978C28.1978 21.0978 31.6696 21.3326 36.0652 21.6326C42.5609 22.0739 51.2913 22.6587 62.3217 22.75L64.25 81.5C64.3196 82.7354 66.3469 82.7119 66.2839 81.605C67.0911 65.11 67.3058 39.245 68.113 22.75C79.1478 22.6587 87.8848 22.0739 94.3804 21.6326C98.7761 21.3348 102.25 21.0978 104.989 21.0978C110.278 21.0978 110.6 21.9391 110.946 22.8326C112.133 25.913 112.133 32.9 112.133 43.5C112.133 81.2239 87.9 94.6652 65.2174 94.6652" sodipodi:nodetypes="ccccccccccccccccccccccc"/>
</svg>
