<?xml version="1.0" standalone="no"?>
<!DOCTYPE svg PUBLIC "-//W3C//DTD SVG 20010904//EN" "http://www.w3.org/TR/2001/REC-SVG-20010904/DTD/svg10.dtd">
<!-- Created using Krita: https://krita.org -->
<svg xmlns="http://www.w3.org/2000/svg" 
    xmlns:xlink="http://www.w3.org/1999/xlink"
    xmlns:krita="http://krita.org/namespaces/svg/krita"
    xmlns:sodipodi="http://sodipodi.sourceforge.net/DTD/sodipodi-0.dtd"
    width="100.8pt"
    height="100.8pt"
    viewBox="0 0 100.8 100.8">
<defs/>
<path id="shape0" transform="matrix(0.303226162339889 0 0 0.303226162339889 4.85999941581097 28.1246401768097)" fill="#ffffff" stroke="none" stroke-width="2.16" stroke-linecap="square" stroke-linejoin="bevel" d="M297 83.898C297 64.989 282.836 49.327 264.56 46.965C254.58 35.189 218.936 0 149.398 0C79.659 0 42.762 35.385 32.568 46.949C14.231 49.256 0 64.947 0 83.898C0 100.394 10.784 114.411 25.67 119.29L31.496 141.768C36.235 160.053 54.744 174.376 73.634 174.376L225.161 174.376C244.051 174.376 262.559 160.053 267.299 141.768L273.31 118.577C287.161 113.144 297 99.653 297 83.898ZM225.161 155.524L73.634 155.524C63.461 155.524 52.297 146.885 49.744 137.038L45.389 120.238C53.124 118.505 59.958 114.361 65.056 108.636C71.881 116.302 81.823 121.139 92.87 121.139C103.918 121.139 113.858 116.302 120.684 108.636C127.511 116.302 137.451 121.139 148.499 121.139C159.547 121.139 169.487 116.302 176.314 108.636C183.14 116.302 193.081 121.139 204.128 121.139C215.177 121.139 225.117 116.302 231.943 108.636C237.412 114.778 244.882 119.095 253.316 120.573L249.048 137.037C246.498 146.885 235.334 155.524 225.161 155.524ZM259.76 102.288C249.62 102.288 241.371 94.039 241.371 83.898C241.371 78.693 237.15 74.472 231.945 74.472C226.74 74.472 222.519 78.693 222.519 83.898C222.519 94.039 214.269 102.288 204.129 102.288C193.989 102.288 185.739 94.039 185.739 83.898C185.739 78.693 181.519 74.472 176.314 74.472C171.108 74.472 166.888 78.693 166.888 83.898C166.888 94.039 158.638 102.288 148.498 102.288C138.358 102.288 130.108 94.039 130.108 83.898C130.108 78.693 125.888 74.472 120.682 74.472C115.477 74.472 111.257 78.693 111.257 83.898C111.257 94.039 103.007 102.288 92.867 102.288C82.727 102.288 74.478 94.039 74.478 83.898C74.478 78.693 70.257 74.472 65.052 74.472C59.847 74.472 55.626 78.693 55.626 83.898C55.626 94.039 47.377 102.288 37.236 102.288C27.096 102.288 18.847 94.039 18.847 83.898C18.847 73.758 27.096 65.509 37.236 65.509C40.203 65.509 43.021 64.08 44.801 61.706C44.881 61.599 53.07 50.818 69.991 40.216C92.615 26.039 119.33 18.852 149.392 18.852C179.396 18.852 205.772 26.011 227.784 40.131C244.232 50.682 251.975 61.408 252.027 61.482C253.791 64.005 256.675 65.509 259.754 65.509C269.894 65.509 278.143 73.758 278.143 83.898C278.148 94.039 269.899 102.288 259.76 102.288Z" sodipodi:nodetypes="ccccccccccccccccccccccccccccccccccccccccccccccccccccc"/><path id="shape1" transform="matrix(0.303226162339889 0 0 0.303226162339889 47.3031718108498 35.198603318037)" fill="#ffffff" stroke-opacity="0" stroke="#000000" stroke-width="0" stroke-linecap="square" stroke-linejoin="bevel" d="M9.426 0C4.221 0 0 4.221 0 9.426L0 24.979C0 30.184 4.221 34.405 9.426 34.405C14.631 34.405 18.852 30.184 18.852 24.979L18.852 9.425C18.851 4.22 14.63 0 9.426 0Z" sodipodi:nodetypes="ccccccc"/><path id="shape2" transform="matrix(0.303226162339889 0 0 0.303226162339889 33.1554457116622 35.7498442160056)" fill="#ffffff" stroke-opacity="0" stroke="#000000" stroke-width="0" stroke-linecap="square" stroke-linejoin="bevel" d="M25.4823 2.20608C21.4953 -1.14092 15.5483 -0.62092 12.2043 3.36808L2.20534 15.2821C-1.14066 19.2691 -0.62066 25.2161 3.36734 28.5611C5.13334 30.0421 7.28334 30.7661 9.42134 30.7661C12.1113 30.7661 14.7823 29.6211 16.6473 27.3991L26.6453 15.4851C29.9903 11.4971 29.4703 5.55208 25.4823 2.20608Z" sodipodi:nodetypes="cccccccc"/><path id="shape3" transform="matrix(0.303226162339889 0 0 0.303226162339889 58.4190366531724 35.7500943083463)" fill="#ffffff" stroke-opacity="0" stroke="#000000" stroke-width="0" stroke-linecap="square" stroke-linejoin="bevel" d="M16.6453 3.36726C13.2983 -0.621745 7.35334 -1.13974 3.36734 2.20526C-0.62066 5.55126 -1.14066 11.4963 2.20534 15.4843L12.2033 27.3983C14.0683 29.6213 16.7383 30.7653 19.4293 30.7653C21.5673 30.7653 23.7173 30.0413 25.4833 28.5603C29.4713 25.2143 29.9913 19.2683 26.6453 15.2813Z" sodipodi:nodetypes="cccccccc"/><g id="group0" transform="matrix(0.72 0 0 0.72 0 0)" fill="none"/><g id="group1" transform="matrix(0.72 0 0 0.72 0 0)" fill="none"/><g id="group2" transform="matrix(0.72 0 0 0.72 0 0)" fill="none"/><g id="group3" transform="matrix(0.72 0 0 0.72 0 0)" fill="none"/><g id="group4" transform="matrix(0.72 0 0 0.72 0 0)" fill="none"/><g id="group5" transform="matrix(0.72 0 0 0.72 0 0)" fill="none"/><g id="group6" transform="matrix(0.72 0 0 0.72 0 0)" fill="none"/><g id="group7" transform="matrix(0.72 0 0 0.72 0 0)" fill="none"/><g id="group8" transform="matrix(0.72 0 0 0.72 0 0)" fill="none"/><g id="group9" transform="matrix(0.72 0 0 0.72 0 0)" fill="none"/><g id="group10" transform="matrix(0.72 0 0 0.72 0 0)" fill="none"/><g id="group11" transform="matrix(0.72 0 0 0.72 0 0)" fill="none"/><g id="group12" transform="matrix(0.72 0 0 0.72 0 0)" fill="none"/><g id="group13" transform="matrix(0.72 0 0 0.72 0 0)" fill="none"/><g id="group14" transform="matrix(0.72 0 0 0.72 0 0)" fill="none"/>
</svg>
