<?xml version="1.0" standalone="no"?>
<!DOCTYPE svg PUBLIC "-//W3C//DTD SVG 20010904//EN" "http://www.w3.org/TR/2001/REC-SVG-20010904/DTD/svg10.dtd">
<!-- Created using Krita: https://krita.org -->
<svg xmlns="http://www.w3.org/2000/svg" 
    xmlns:xlink="http://www.w3.org/1999/xlink"
    xmlns:krita="http://krita.org/namespaces/svg/krita"
    xmlns:sodipodi="http://sodipodi.sourceforge.net/DTD/sodipodi-0.dtd"
    width="100.8pt"
    height="100.8pt"
    viewBox="0 0 100.8 100.8">
<defs/>
<path id="shape0" transform="translate(47.8569881215357, 47.347868735158)" fill="none" stroke="#ffffff" stroke-width="2.16" stroke-linecap="square" stroke-linejoin="miter" stroke-miterlimit="2" d="M0 1.84555L2.29102 0" sodipodi:nodetypes="cc"/><path id="shape0" transform="matrix(-0.999999972206214 0 0 0.999999972206214 52.3753935266675 47.6024287745578)" fill="none" stroke="#ffffff" stroke-width="2.16" stroke-linecap="square" stroke-linejoin="miter" stroke-miterlimit="2" d="M0 1.84555C0.763673 1.23037 1.52735 0.615183 2.29102 0" sodipodi:nodetypes="cc"/><path id="shape1" transform="matrix(1.46940794407012 0 0 1.45578822874191 7.22433384468646 25.5156379161283)" fill="none" stroke="#ffffff" stroke-width="3.6" stroke-linecap="square" stroke-linejoin="bevel" d="M9.01316 0C-2.00182 12.9487 -2.35844 24.3944 4.89526 32.0237C14.7756 42.4157 29.7721 34.0456 29.3778 17.5645" sodipodi:nodetypes="csc"/><path id="shape2" transform="matrix(-1.46940794407012 0 0 1.41813858933993 93.6243321344164 26.9979709069485)" fill="none" stroke="#ffffff" stroke-width="3.6" stroke-linecap="square" stroke-linejoin="bevel" d="M8.54756 0C-2.46741 12.9487 -2.0154 24.2513 5.2383 31.8806C15.1186 42.2726 30.1151 33.9025 29.7209 17.4214" sodipodi:nodetypes="csc"/><path id="shape01" transform="matrix(1.46940790322971 0 0 1.45578818828004 49.8595944094346 47.6344898444223)" fill="none" stroke="#ffffff" stroke-width="3.6" stroke-linecap="square" stroke-linejoin="miter" stroke-miterlimit="2" d="M0.0449999 3.195L0 0" sodipodi:nodetypes="cc"/>
</svg>
